# xmcd CD database file
#
# Track frame offsets:
#	150
#	9947
#	20075
#	32112
#	42862
#	54962
#	66342
#	81925
#	95850
#	107637
#	120222
#	133307
#	146080
#	158052
#	172232
#	185842
#	196980
#	210997
#	224107
#	236330
#	249597
#
# Disc length: 3497 seconds
#
# Revision: 0
# Processed by: cddbd v1.5PL3 Copyright (c) Steve Scherf et al.
# Submitted via: CDex 1.50
#
DISCID=350da715
DTITLE=Various Artist - Chicago Blues Of The 1950's
DYEAR=1997
DGENRE=Blues
TTITLE0=Irma Lee - Guitar Shorty
TTITLE1=You Don't Treat Me Right - Guitar Shorty
TTITLE2=Will My Man Be Home Tonight - Lillian Offit
TTITLE3=I'll Just Keep Walkin - Lee Jackson
TTITLE4=Fishin In My Pond - Lee Jackson
TTITLE5=Changing Love - Clarence Jolly
TTITLE6=Easy Baby - Magic Sam
TTITLE7=Highway 61 - Sunnyland Slim
TTITLE8=Why Should I Worry - Moody Jones
TTITLE9=Screaming and Crying - Morris Pejoe
TTITLE10=Maybe Blues - Morris Pejoe
TTITLE11=Trouble In The Morning - John Brim
TTITLE12=I Love My Baby - John Brim
TTITLE13=Man Around My Door - Grace Brim
TTITLE14=Humming Blues - John Brim
TTITLE15=Hospitality Blues - Grace Brim
TTITLE16=Young and Wild - John Brim
TTITLE17=Drinking Woman - John Brim
TTITLE18=Hard Pill To Swallow - John Brim
TTITLE19=Don't Leave Me - John Brim
TTITLE20=Moonlight Blues - John Brim
EXTD=YEAR: 1997
EXTT0=
EXTT1=
EXTT2=
EXTT3=
EXTT4=
EXTT5=
EXTT6=
EXTT7=
EXTT8=
EXTT9=
EXTT10=
EXTT11=
EXTT12=
EXTT13=
EXTT14=
EXTT15=
EXTT16=
EXTT17=
EXTT18=
EXTT19=
EXTT20=
PLAYORDER=
